REM DIRINDEX 1\5,1\2\6,1\2\7,1\3\8,1\3\9,1\4\10,1\4\11,1\4\12
REM DIRNAME folder01,folder02,folder03,folder04,folder05,folder06,folder07,folder08,folder09,folder10,folder11,folder12
TITLE ""
FILE "EJE_DB3000_5th_2A_32.mp3" MP3
  TRACK 01 AUDIO
    TITLE "0:"
    INDEX 01 00:00:00
  TRACK 02 AUDIO
    TITLE "10:cjc026_07761"
    INDEX 01 00:00:05
  TRACK 03 AUDIO
    TITLE "0:"
    INDEX 01 00:01:03
  TRACK 04 AUDIO
    TITLE "11:cjc026_07762"
    INDEX 01 00:01:30
  TRACK 05 AUDIO
    TITLE "0:"
    INDEX 01 00:02:38
  TRACK 06 AUDIO
    TITLE "12:cjc026_07763"
    INDEX 01 00:02:63
  TRACK 07 AUDIO
    TITLE "0:"
    INDEX 01 00:03:63
  TRACK 08 AUDIO
    TITLE "10:cjc026_07764"
    INDEX 01 00:04:15
  TRACK 09 AUDIO
    TITLE "0:"
    INDEX 01 00:05:18
  TRACK 10 AUDIO
    TITLE "11:cjc026_07765"
    INDEX 01 00:05:44
  TRACK 11 AUDIO
    TITLE "0:"
    INDEX 01 00:06:59
  TRACK 12 AUDIO
    TITLE "12:cjc026_07766"
    INDEX 01 00:07:09
  TRACK 13 AUDIO
    TITLE "0:"
    INDEX 01 00:08:13
  TRACK 14 AUDIO
    TITLE "10:cjc026_07767"
    INDEX 01 00:08:40
  TRACK 15 AUDIO
    TITLE "0:"
    INDEX 01 00:09:34
  TRACK 16 AUDIO
    TITLE "11:cjc026_07768"
    INDEX 01 00:09:59
  TRACK 17 AUDIO
    TITLE "0:"
    INDEX 01 00:10:61
  TRACK 18 AUDIO
    TITLE "12:cjc026_07769"
    INDEX 01 00:11:13
  TRACK 19 AUDIO
    TITLE "0:"
    INDEX 01 00:12:07
  TRACK 20 AUDIO
    TITLE "10:cjc026_07770"
    INDEX 01 00:12:34
  TRACK 21 AUDIO
    TITLE "0:"
    INDEX 01 00:13:26
  TRACK 22 AUDIO
    TITLE "11:cjc026_07771"
    INDEX 01 00:13:53
  TRACK 23 AUDIO
    TITLE "0:"
    INDEX 01 00:14:62
  TRACK 24 AUDIO
    TITLE "12:cjc026_07772"
    INDEX 01 00:15:13
  TRACK 25 AUDIO
    TITLE "0:"
    INDEX 01 00:16:06
  TRACK 26 AUDIO
    TITLE "10:cjc026_07773"
    INDEX 01 00:16:34
  TRACK 27 AUDIO
    TITLE "0:"
    INDEX 01 00:17:23
  TRACK 28 AUDIO
    TITLE "11:cjc026_07774"
    INDEX 01 00:17:49
  TRACK 29 AUDIO
    TITLE "0:"
    INDEX 01 00:18:66
  TRACK 30 AUDIO
    TITLE "12:cjc026_07775"
    INDEX 01 00:19:16
  TRACK 31 AUDIO
    TITLE "0:"
    INDEX 01 00:20:06
  TRACK 32 AUDIO
    TITLE "10:cjc026_07776"
    INDEX 01 00:20:32
  TRACK 33 AUDIO
    TITLE "0:"
    INDEX 01 00:21:23
  TRACK 34 AUDIO
    TITLE "11:cjc026_07777"
    INDEX 01 00:21:47
  TRACK 35 AUDIO
    TITLE "0:"
    INDEX 01 00:22:54
  TRACK 36 AUDIO
    TITLE "12:cjc026_07778"
    INDEX 01 00:23:06
  TRACK 37 AUDIO
    TITLE "0:"
    INDEX 01 00:23:71
  TRACK 38 AUDIO
    TITLE "10:cjc026_07779"
    INDEX 01 00:24:22
  TRACK 39 AUDIO
    TITLE "0:"
    INDEX 01 00:25:07
  TRACK 40 AUDIO
    TITLE "11:cjc026_07780"
    INDEX 01 00:25:33
  TRACK 41 AUDIO
    TITLE "0:"
    INDEX 01 00:26:38
  TRACK 42 AUDIO
    TITLE "12:cjc026_07781"
    INDEX 01 00:26:66
  TRACK 43 AUDIO
    TITLE "0:"
    INDEX 01 00:27:49
  TRACK 44 AUDIO
    TITLE "10:cjc026_07782"
    INDEX 01 00:28:02
  TRACK 45 AUDIO
    TITLE "0:"
    INDEX 01 00:28:74
  TRACK 46 AUDIO
    TITLE "11:cjc026_07783"
    INDEX 01 00:29:25
  TRACK 47 AUDIO
    TITLE "0:"
    INDEX 01 00:30:42
  TRACK 48 AUDIO
    TITLE "12:cjc026_07784"
    INDEX 01 00:30:69
  TRACK 49 AUDIO
    TITLE "0:"
    INDEX 01 00:31:67
  TRACK 50 AUDIO
    TITLE "10:cjc026_07785"
    INDEX 01 00:32:19
  TRACK 51 AUDIO
    TITLE "0:"
    INDEX 01 00:33:15
  TRACK 52 AUDIO
    TITLE "11:cjc026_07786"
    INDEX 01 00:33:42
  TRACK 53 AUDIO
    TITLE "0:"
    INDEX 01 00:34:49
  TRACK 54 AUDIO
    TITLE "12:cjc026_07787"
    INDEX 01 00:35:00
  TRACK 55 AUDIO
    TITLE "0:"
    INDEX 01 00:35:72
  TRACK 56 AUDIO
    TITLE "10:cjc026_07788"
    INDEX 01 00:36:23
  TRACK 57 AUDIO
    TITLE "0:"
    INDEX 01 00:37:14
  TRACK 58 AUDIO
    TITLE "11:cjc026_07789"
    INDEX 01 00:37:40
  TRACK 59 AUDIO
    TITLE "0:"
    INDEX 01 00:38:37
  TRACK 60 AUDIO
    TITLE "12:cjc026_07790"
    INDEX 01 00:38:63
  TRACK 61 AUDIO
    TITLE "0:"
    INDEX 01 00:39:54
  TRACK 62 AUDIO
    TITLE "10:cjc026_07791"
    INDEX 01 00:40:05
  TRACK 63 AUDIO
    TITLE "0:"
    INDEX 01 00:41:06
  TRACK 64 AUDIO
    TITLE "11:cjc026_07792"
    INDEX 01 00:41:34
  TRACK 65 AUDIO
    TITLE "0:"
    INDEX 01 00:42:29
  TRACK 66 AUDIO
    TITLE "12:cjc026_07793"
    INDEX 01 00:42:55
  TRACK 67 AUDIO
    TITLE "0:"
    INDEX 01 00:43:56
  TRACK 68 AUDIO
    TITLE "10:cjc026_07794"
    INDEX 01 00:44:09
  TRACK 69 AUDIO
    TITLE "0:"
    INDEX 01 00:45:04
  TRACK 70 AUDIO
    TITLE "11:cjc026_07795"
    INDEX 01 00:45:30
  TRACK 71 AUDIO
    TITLE "0:"
    INDEX 01 00:46:29
  TRACK 72 AUDIO
    TITLE "12:cjc026_07796"
    INDEX 01 00:46:56
  TRACK 73 AUDIO
    TITLE "0:"
    INDEX 01 00:47:52
